<svg xmlns="http://www.w3.org/2000/svg" viewBox="0 0 900 600">

<rect width="900" height="600" fill="#00008B"/>
<rect width="450" height="300" fill="#012169"/>
<line x1="0" y1="0" x2="450" y2="300" stroke="#FFFFFF" stroke-width="60"/>
<line x1="450" y1="0" x2="0" y2="300" stroke="#FFFFFF" stroke-width="60"/>
<line x1="0" y1="0" x2="450" y2="300" stroke="#C8102E" stroke-width="36"/>
<line x1="450" y1="0" x2="0" y2="300" stroke="#C8102E" stroke-width="36"/>
<rect y="120" width="450" height="60" fill="#FFFFFF"/>
<rect x="195" width="60" height="300" fill="#FFFFFF"/>
<rect y="130" width="450" height="40" fill="#C8102E"/>
<rect x="205" width="40" height="300" fill="#C8102E"/>
<polygon points="112.0,392.0 121.6,430.0 157.3,413.8 133.6,445.1 168.5,462.9 129.3,463.8 137.2,502.3 112.0,472.2 86.8,502.3 94.7,463.8 55.5,462.9 90.4,445.1 66.7,413.8 102.4,430.0" fill="#FFFFFF"/>
<polygon points="620.0,115.0 629.0,142.6 658.0,142.6 634.5,159.7 643.5,187.4 620.0,170.3 596.5,187.4 605.5,159.7 582.0,142.6 611.0,142.6" fill="#FFFFFF"/>
<polygon points="720.0,215.0 726.7,235.7 748.5,235.7 730.9,248.5 737.6,269.3 720.0,256.5 702.4,269.3 709.1,248.5 691.5,235.7 713.3,235.7" fill="#FFFFFF"/>
<polygon points="645.0,333.0 652.2,355.1 675.4,355.1 656.6,368.8 663.8,390.9 645.0,377.2 626.2,390.9 633.4,368.8 614.6,355.1 637.8,355.1" fill="#FFFFFF"/>
<polygon points="790.0,310.0 796.7,330.7 818.5,330.7 800.9,343.5 807.6,364.3 790.0,351.5 772.4,364.3 779.1,343.5 761.5,330.7 783.3,330.7" fill="#FFFFFF"/>
<polygon points="810.0,167.0 814.0,179.4 827.1,179.4 816.5,187.1 820.6,199.6 810.0,191.9 799.4,199.6 803.5,187.1 792.9,179.4 806.0,179.4" fill="#FFFFFF"/>

</svg>
