<svg xmlns="http://www.w3.org/2000/svg" viewBox="0 0 900 600">

<rect width="900" height="600" fill="#002395"/>
<polygon points="298,0 900,0 900,600" fill="#FECB00"/>
<polygon points="282.0,-22.0 286.9,-6.8 302.9,-6.8 290.0,2.6 294.9,17.8 282.0,8.4 269.1,17.8 274.0,2.6 261.1,-6.8 277.1,-6.8" fill="#FFFFFF"/>
<polygon points="333.5,28.0 338.4,43.2 354.4,43.2 341.5,52.6 346.4,67.8 333.5,58.4 320.6,67.8 325.5,52.6 312.6,43.2 328.6,43.2" fill="#FFFFFF"/>
<polygon points="385.0,78.0 389.9,93.2 405.9,93.2 393.0,102.6 397.9,117.8 385.0,108.4 372.1,117.8 377.0,102.6 364.1,93.2 380.1,93.2" fill="#FFFFFF"/>
<polygon points="436.5,128.0 441.4,143.2 457.4,143.2 444.5,152.6 449.4,167.8 436.5,158.4 423.6,167.8 428.5,152.6 415.6,143.2 431.6,143.2" fill="#FFFFFF"/>
<polygon points="488.0,178.0 492.9,193.2 508.9,193.2 496.0,202.6 500.9,217.8 488.0,208.4 475.1,217.8 480.0,202.6 467.1,193.2 483.1,193.2" fill="#FFFFFF"/>
<polygon points="539.5,228.0 544.4,243.2 560.4,243.2 547.5,252.6 552.4,267.8 539.5,258.4 526.6,267.8 531.5,252.6 518.6,243.2 534.6,243.2" fill="#FFFFFF"/>
<polygon points="591.0,278.0 595.9,293.2 611.9,293.2 599.0,302.6 603.9,317.8 591.0,308.4 578.1,317.8 583.0,302.6 570.1,293.2 586.1,293.2" fill="#FFFFFF"/>
<polygon points="642.5,328.0 647.4,343.2 663.4,343.2 650.5,352.6 655.4,367.8 642.5,358.4 629.6,367.8 634.5,352.6 621.6,343.2 637.6,343.2" fill="#FFFFFF"/>
<polygon points="694.0,378.0 698.9,393.2 714.9,393.2 702.0,402.6 706.9,417.8 694.0,408.4 681.1,417.8 686.0,402.6 673.1,393.2 689.1,393.2" fill="#FFFFFF"/>
<polygon points="745.5,428.0 750.4,443.2 766.4,443.2 753.5,452.6 758.4,467.8 745.5,458.4 732.6,467.8 737.5,452.6 724.6,443.2 740.6,443.2" fill="#FFFFFF"/>
<polygon points="797.0,478.0 801.9,493.2 817.9,493.2 805.0,502.6 809.9,517.8 797.0,508.4 784.1,517.8 789.0,502.6 776.1,493.2 792.1,493.2" fill="#FFFFFF"/>
<polygon points="848.5,528.0 853.4,543.2 869.4,543.2 856.5,552.6 861.4,567.8 848.5,558.4 835.6,567.8 840.5,552.6 827.6,543.2 843.6,543.2" fill="#FFFFFF"/>
<polygon points="900.0,578.0 904.9,593.2 920.9,593.2 908.0,602.6 912.9,617.8 900.0,608.4 887.1,617.8 892.0,602.6 879.1,593.2 895.1,593.2" fill="#FFFFFF"/>

</svg>
