<svg xmlns="http://www.w3.org/2000/svg" viewBox="0 0 900 600">

<rect width="900" height="600" fill="#009C3B"/>
<polygon points="450,50 870,300 450,550 30,300" fill="#FEDF00"/>
<circle cx="450" cy="300" r="138" fill="#003087"/>
<path d="M318,268 Q450,228 582,268 L582,332 Q450,372 318,332 Z" fill="#FFFFFF"/>
<polygon points="367.0,225.0 370.4,235.4 381.3,235.4 372.4,241.8 375.8,252.1 367.0,245.7 358.2,252.1 361.6,241.8 352.7,235.4 363.6,235.4" fill="#003087"/>
<polygon points="453.0,189.0 456.4,199.4 467.3,199.4 458.4,205.8 461.8,216.1 453.0,209.7 444.2,216.1 447.6,205.8 438.7,199.4 449.6,199.4" fill="#003087"/>
<polygon points="524.0,200.0 527.4,210.4 538.3,210.4 529.4,216.8 532.8,227.1 524.0,220.7 515.2,227.1 518.6,216.8 509.7,210.4 520.6,210.4" fill="#003087"/>
<polygon points="569.0,247.0 572.4,257.4 583.3,257.4 574.4,263.8 577.8,274.1 569.0,267.7 560.2,274.1 563.6,263.8 554.7,257.4 565.6,257.4" fill="#003087"/>
<polygon points="544.0,320.0 547.4,330.4 558.3,330.4 549.4,336.8 552.8,347.1 544.0,340.7 535.2,347.1 538.6,336.8 529.7,330.4 540.6,330.4" fill="#003087"/>
<polygon points="457.0,361.0 460.4,371.4 471.3,371.4 462.4,377.8 465.8,388.1 457.0,381.7 448.2,388.1 451.6,377.8 442.7,371.4 453.6,371.4" fill="#003087"/>
<polygon points="374.0,335.0 377.4,345.4 388.3,345.4 379.4,351.8 382.8,362.1 374.0,355.7 365.2,362.1 368.6,351.8 359.7,345.4 370.6,345.4" fill="#003087"/>
<polygon points="338.0,279.0 341.4,289.4 352.3,289.4 343.4,295.8 346.8,306.1 338.0,299.7 329.2,306.1 332.6,295.8 323.7,289.4 334.6,289.4" fill="#003087"/>
<polygon points="392.0,158.0 395.4,168.4 406.3,168.4 397.4,174.8 400.8,185.1 392.0,178.7 383.2,185.1 386.6,174.8 377.7,168.4 388.6,168.4" fill="#003087"/>

</svg>
