<svg xmlns="http://www.w3.org/2000/svg" viewBox="0 0 900 600">

<rect width="900" height="600" fill="#003893"/>
<rect y="372" width="900" height="44" fill="#FFFFFF"/>
<rect y="416" width="900" height="44" fill="#CF2027"/>
<rect y="460" width="900" height="44" fill="#FFFFFF"/>
<polygon points="450.0,231.0 454.9,246.2 470.9,246.2 458.0,255.6 462.9,270.8 450.0,261.4 437.1,270.8 442.0,255.6 429.1,246.2 445.1,246.2" fill="#F7D116"/>
<polygon points="552.9,264.4 557.8,279.6 573.8,279.6 560.9,289.0 565.8,304.2 552.9,294.8 539.9,304.2 544.9,289.0 531.9,279.6 547.9,279.6" fill="#F7D116"/>
<polygon points="616.4,351.9 621.4,367.1 637.4,367.1 624.4,376.5 629.4,391.7 616.4,382.3 603.5,391.7 608.4,376.5 595.5,367.1 611.5,367.1" fill="#F7D116"/>
<polygon points="616.4,460.1 621.4,475.3 637.4,475.3 624.4,484.7 629.4,499.9 616.4,490.5 603.5,499.9 608.4,484.7 595.5,475.3 611.5,475.3" fill="#F7D116"/>
<polygon points="552.9,547.6 557.8,562.8 573.8,562.8 560.9,572.2 565.8,587.4 552.9,578.0 539.9,587.4 544.9,572.2 531.9,562.8 547.9,562.8" fill="#F7D116"/>
<polygon points="450.0,581.0 454.9,596.2 470.9,596.2 458.0,605.6 462.9,620.8 450.0,611.4 437.1,620.8 442.0,605.6 429.1,596.2 445.1,596.2" fill="#F7D116"/>
<polygon points="347.1,547.6 352.1,562.8 368.1,562.8 355.1,572.2 360.1,587.4 347.1,578.0 334.2,587.4 339.1,572.2 326.2,562.8 342.2,562.8" fill="#F7D116"/>
<polygon points="283.6,460.1 288.5,475.3 304.5,475.3 291.6,484.7 296.5,499.9 283.6,490.5 270.6,499.9 275.6,484.7 262.6,475.3 278.6,475.3" fill="#F7D116"/>
<polygon points="283.6,351.9 288.5,367.1 304.5,367.1 291.6,376.5 296.5,391.7 283.6,382.3 270.6,391.7 275.6,376.5 262.6,367.1 278.6,367.1" fill="#F7D116"/>
<polygon points="347.1,264.4 352.1,279.6 368.1,279.6 355.1,289.0 360.1,304.2 347.1,294.8 334.2,304.2 339.1,289.0 326.2,279.6 342.2,279.6" fill="#F7D116"/>

</svg>
