<svg xmlns="http://www.w3.org/2000/svg" viewBox="0 0 900 600">

<rect width="900" height="600" fill="#00247D"/>
<rect width="450" height="300" fill="#012169"/>
<line x1="0" y1="0" x2="450" y2="300" stroke="#FFFFFF" stroke-width="56"/>
<line x1="450" y1="0" x2="0" y2="300" stroke="#FFFFFF" stroke-width="56"/>
<line x1="0" y1="0" x2="450" y2="300" stroke="#C8102E" stroke-width="34"/>
<line x1="450" y1="0" x2="0" y2="300" stroke="#C8102E" stroke-width="34"/>
<rect y="120" width="450" height="60" fill="#FFFFFF"/>
<rect x="195" width="60" height="300" fill="#FFFFFF"/>
<rect y="130" width="450" height="40" fill="#C8102E"/>
<rect x="205" width="40" height="300" fill="#C8102E"/>
<polygon points="587.0,111.0 595.3,136.6 622.2,136.6 600.4,152.4 608.7,177.9 587.0,162.1 565.3,177.9 573.6,152.4 551.8,136.6 578.7,136.6" fill="#FFFFFF"/><polygon points="587.0,118.0 593.7,138.7 615.5,138.7 597.9,151.5 604.6,172.3 587.0,159.5 569.4,172.3 576.1,151.5 558.5,138.7 580.3,138.7" fill="#C8102E"/>
<polygon points="686.0,188.0 692.3,207.3 712.6,207.3 696.2,219.3 702.5,238.7 686.0,226.7 669.5,238.7 675.8,219.3 659.4,207.3 679.7,207.3" fill="#FFFFFF"/><polygon points="686.0,194.0 690.9,209.2 706.9,209.2 694.0,218.6 698.9,233.8 686.0,224.4 673.1,233.8 678.0,218.6 665.1,209.2 681.1,209.2" fill="#C8102E"/>
<polygon points="606.0,306.0 612.7,326.7 634.5,326.7 616.9,339.5 623.6,360.3 606.0,347.5 588.4,360.3 595.1,339.5 577.5,326.7 599.3,326.7" fill="#FFFFFF"/><polygon points="606.0,312.0 611.4,328.6 628.8,328.6 614.7,338.8 620.1,355.4 606.0,345.2 591.9,355.4 597.3,338.8 583.2,328.6 600.6,328.6" fill="#C8102E"/>
<polygon points="756.0,272.0 762.3,291.3 782.6,291.3 766.2,303.3 772.5,322.7 756.0,310.7 739.5,322.7 745.8,303.3 729.4,291.3 749.7,291.3" fill="#FFFFFF"/><polygon points="756.0,278.0 760.9,293.2 776.9,293.2 764.0,302.6 768.9,317.8 756.0,308.4 743.1,317.8 748.0,302.6 735.1,293.2 751.1,293.2" fill="#C8102E"/>

</svg>
