<svg xmlns="http://www.w3.org/2000/svg" viewBox="0 0 900 600">

<rect y="0.0" width="900" height="46.2" fill="#B22234"/>
<rect y="46.2" width="900" height="46.2" fill="#FFFFFF"/>
<rect y="92.3" width="900" height="46.2" fill="#B22234"/>
<rect y="138.5" width="900" height="46.2" fill="#FFFFFF"/>
<rect y="184.6" width="900" height="46.2" fill="#B22234"/>
<rect y="230.8" width="900" height="46.2" fill="#FFFFFF"/>
<rect y="276.9" width="900" height="46.2" fill="#B22234"/>
<rect y="323.1" width="900" height="46.2" fill="#FFFFFF"/>
<rect y="369.2" width="900" height="46.2" fill="#B22234"/>
<rect y="415.4" width="900" height="46.2" fill="#FFFFFF"/>
<rect y="461.5" width="900" height="46.2" fill="#B22234"/>
<rect y="507.7" width="900" height="46.2" fill="#FFFFFF"/>
<rect y="553.8" width="900" height="46.2" fill="#B22234"/>
<rect width="360" height="323.1" fill="#3C3B6E"/>
<polygon points="30.0,6.0 32.7,14.3 41.4,14.3 34.4,19.4 37.1,27.7 30.0,22.6 22.9,27.7 25.6,19.4 18.6,14.3 27.3,14.3" fill="#FFFFFF"/>
<polygon points="84.0,6.0 86.7,14.3 95.4,14.3 88.4,19.4 91.1,27.7 84.0,22.6 76.9,27.7 79.6,19.4 72.6,14.3 81.3,14.3" fill="#FFFFFF"/>
<polygon points="138.0,6.0 140.7,14.3 149.4,14.3 142.4,19.4 145.1,27.7 138.0,22.6 130.9,27.7 133.6,19.4 126.6,14.3 135.3,14.3" fill="#FFFFFF"/>
<polygon points="192.0,6.0 194.7,14.3 203.4,14.3 196.4,19.4 199.1,27.7 192.0,22.6 184.9,27.7 187.6,19.4 180.6,14.3 189.3,14.3" fill="#FFFFFF"/>
<polygon points="246.0,6.0 248.7,14.3 257.4,14.3 250.4,19.4 253.1,27.7 246.0,22.6 238.9,27.7 241.6,19.4 234.6,14.3 243.3,14.3" fill="#FFFFFF"/>
<polygon points="300.0,6.0 302.7,14.3 311.4,14.3 304.4,19.4 307.1,27.7 300.0,22.6 292.9,27.7 295.6,19.4 288.6,14.3 297.3,14.3" fill="#FFFFFF"/>
<polygon points="30.0,44.0 32.7,52.3 41.4,52.3 34.4,57.4 37.1,65.7 30.0,60.6 22.9,65.7 25.6,57.4 18.6,52.3 27.3,52.3" fill="#FFFFFF"/>
<polygon points="84.0,44.0 86.7,52.3 95.4,52.3 88.4,57.4 91.1,65.7 84.0,60.6 76.9,65.7 79.6,57.4 72.6,52.3 81.3,52.3" fill="#FFFFFF"/>
<polygon points="138.0,44.0 140.7,52.3 149.4,52.3 142.4,57.4 145.1,65.7 138.0,60.6 130.9,65.7 133.6,57.4 126.6,52.3 135.3,52.3" fill="#FFFFFF"/>
<polygon points="192.0,44.0 194.7,52.3 203.4,52.3 196.4,57.4 199.1,65.7 192.0,60.6 184.9,65.7 187.6,57.4 180.6,52.3 189.3,52.3" fill="#FFFFFF"/>
<polygon points="246.0,44.0 248.7,52.3 257.4,52.3 250.4,57.4 253.1,65.7 246.0,60.6 238.9,65.7 241.6,57.4 234.6,52.3 243.3,52.3" fill="#FFFFFF"/>
<polygon points="300.0,44.0 302.7,52.3 311.4,52.3 304.4,57.4 307.1,65.7 300.0,60.6 292.9,65.7 295.6,57.4 288.6,52.3 297.3,52.3" fill="#FFFFFF"/>
<polygon points="30.0,82.0 32.7,90.3 41.4,90.3 34.4,95.4 37.1,103.7 30.0,98.6 22.9,103.7 25.6,95.4 18.6,90.3 27.3,90.3" fill="#FFFFFF"/>
<polygon points="84.0,82.0 86.7,90.3 95.4,90.3 88.4,95.4 91.1,103.7 84.0,98.6 76.9,103.7 79.6,95.4 72.6,90.3 81.3,90.3" fill="#FFFFFF"/>
<polygon points="138.0,82.0 140.7,90.3 149.4,90.3 142.4,95.4 145.1,103.7 138.0,98.6 130.9,103.7 133.6,95.4 126.6,90.3 135.3,90.3" fill="#FFFFFF"/>
<polygon points="192.0,82.0 194.7,90.3 203.4,90.3 196.4,95.4 199.1,103.7 192.0,98.6 184.9,103.7 187.6,95.4 180.6,90.3 189.3,90.3" fill="#FFFFFF"/>
<polygon points="246.0,82.0 248.7,90.3 257.4,90.3 250.4,95.4 253.1,103.7 246.0,98.6 238.9,103.7 241.6,95.4 234.6,90.3 243.3,90.3" fill="#FFFFFF"/>
<polygon points="300.0,82.0 302.7,90.3 311.4,90.3 304.4,95.4 307.1,103.7 300.0,98.6 292.9,103.7 295.6,95.4 288.6,90.3 297.3,90.3" fill="#FFFFFF"/>
<polygon points="30.0,120.0 32.7,128.3 41.4,128.3 34.4,133.4 37.1,141.7 30.0,136.6 22.9,141.7 25.6,133.4 18.6,128.3 27.3,128.3" fill="#FFFFFF"/>
<polygon points="84.0,120.0 86.7,128.3 95.4,128.3 88.4,133.4 91.1,141.7 84.0,136.6 76.9,141.7 79.6,133.4 72.6,128.3 81.3,128.3" fill="#FFFFFF"/>
<polygon points="138.0,120.0 140.7,128.3 149.4,128.3 142.4,133.4 145.1,141.7 138.0,136.6 130.9,141.7 133.6,133.4 126.6,128.3 135.3,128.3" fill="#FFFFFF"/>
<polygon points="192.0,120.0 194.7,128.3 203.4,128.3 196.4,133.4 199.1,141.7 192.0,136.6 184.9,141.7 187.6,133.4 180.6,128.3 189.3,128.3" fill="#FFFFFF"/>
<polygon points="246.0,120.0 248.7,128.3 257.4,128.3 250.4,133.4 253.1,141.7 246.0,136.6 238.9,141.7 241.6,133.4 234.6,128.3 243.3,128.3" fill="#FFFFFF"/>
<polygon points="300.0,120.0 302.7,128.3 311.4,128.3 304.4,133.4 307.1,141.7 300.0,136.6 292.9,141.7 295.6,133.4 288.6,128.3 297.3,128.3" fill="#FFFFFF"/>
<polygon points="30.0,158.0 32.7,166.3 41.4,166.3 34.4,171.4 37.1,179.7 30.0,174.6 22.9,179.7 25.6,171.4 18.6,166.3 27.3,166.3" fill="#FFFFFF"/>
<polygon points="84.0,158.0 86.7,166.3 95.4,166.3 88.4,171.4 91.1,179.7 84.0,174.6 76.9,179.7 79.6,171.4 72.6,166.3 81.3,166.3" fill="#FFFFFF"/>
<polygon points="138.0,158.0 140.7,166.3 149.4,166.3 142.4,171.4 145.1,179.7 138.0,174.6 130.9,179.7 133.6,171.4 126.6,166.3 135.3,166.3" fill="#FFFFFF"/>
<polygon points="192.0,158.0 194.7,166.3 203.4,166.3 196.4,171.4 199.1,179.7 192.0,174.6 184.9,179.7 187.6,171.4 180.6,166.3 189.3,166.3" fill="#FFFFFF"/>
<polygon points="246.0,158.0 248.7,166.3 257.4,166.3 250.4,171.4 253.1,179.7 246.0,174.6 238.9,179.7 241.6,171.4 234.6,166.3 243.3,166.3" fill="#FFFFFF"/>
<polygon points="300.0,158.0 302.7,166.3 311.4,166.3 304.4,171.4 307.1,179.7 300.0,174.6 292.9,179.7 295.6,171.4 288.6,166.3 297.3,166.3" fill="#FFFFFF"/>
<polygon points="30.0,196.0 32.7,204.3 41.4,204.3 34.4,209.4 37.1,217.7 30.0,212.6 22.9,217.7 25.6,209.4 18.6,204.3 27.3,204.3" fill="#FFFFFF"/>
<polygon points="84.0,196.0 86.7,204.3 95.4,204.3 88.4,209.4 91.1,217.7 84.0,212.6 76.9,217.7 79.6,209.4 72.6,204.3 81.3,204.3" fill="#FFFFFF"/>
<polygon points="138.0,196.0 140.7,204.3 149.4,204.3 142.4,209.4 145.1,217.7 138.0,212.6 130.9,217.7 133.6,209.4 126.6,204.3 135.3,204.3" fill="#FFFFFF"/>
<polygon points="192.0,196.0 194.7,204.3 203.4,204.3 196.4,209.4 199.1,217.7 192.0,212.6 184.9,217.7 187.6,209.4 180.6,204.3 189.3,204.3" fill="#FFFFFF"/>
<polygon points="246.0,196.0 248.7,204.3 257.4,204.3 250.4,209.4 253.1,217.7 246.0,212.6 238.9,217.7 241.6,209.4 234.6,204.3 243.3,204.3" fill="#FFFFFF"/>
<polygon points="300.0,196.0 302.7,204.3 311.4,204.3 304.4,209.4 307.1,217.7 300.0,212.6 292.9,217.7 295.6,209.4 288.6,204.3 297.3,204.3" fill="#FFFFFF"/>
<polygon points="30.0,234.0 32.7,242.3 41.4,242.3 34.4,247.4 37.1,255.7 30.0,250.6 22.9,255.7 25.6,247.4 18.6,242.3 27.3,242.3" fill="#FFFFFF"/>
<polygon points="84.0,234.0 86.7,242.3 95.4,242.3 88.4,247.4 91.1,255.7 84.0,250.6 76.9,255.7 79.6,247.4 72.6,242.3 81.3,242.3" fill="#FFFFFF"/>
<polygon points="138.0,234.0 140.7,242.3 149.4,242.3 142.4,247.4 145.1,255.7 138.0,250.6 130.9,255.7 133.6,247.4 126.6,242.3 135.3,242.3" fill="#FFFFFF"/>
<polygon points="192.0,234.0 194.7,242.3 203.4,242.3 196.4,247.4 199.1,255.7 192.0,250.6 184.9,255.7 187.6,247.4 180.6,242.3 189.3,242.3" fill="#FFFFFF"/>
<polygon points="246.0,234.0 248.7,242.3 257.4,242.3 250.4,247.4 253.1,255.7 246.0,250.6 238.9,255.7 241.6,247.4 234.6,242.3 243.3,242.3" fill="#FFFFFF"/>
<polygon points="300.0,234.0 302.7,242.3 311.4,242.3 304.4,247.4 307.1,255.7 300.0,250.6 292.9,255.7 295.6,247.4 288.6,242.3 297.3,242.3" fill="#FFFFFF"/>
<polygon points="30.0,272.0 32.7,280.3 41.4,280.3 34.4,285.4 37.1,293.7 30.0,288.6 22.9,293.7 25.6,285.4 18.6,280.3 27.3,280.3" fill="#FFFFFF"/>
<polygon points="84.0,272.0 86.7,280.3 95.4,280.3 88.4,285.4 91.1,293.7 84.0,288.6 76.9,293.7 79.6,285.4 72.6,280.3 81.3,280.3" fill="#FFFFFF"/>
<polygon points="138.0,272.0 140.7,280.3 149.4,280.3 142.4,285.4 145.1,293.7 138.0,288.6 130.9,293.7 133.6,285.4 126.6,280.3 135.3,280.3" fill="#FFFFFF"/>
<polygon points="192.0,272.0 194.7,280.3 203.4,280.3 196.4,285.4 199.1,293.7 192.0,288.6 184.9,293.7 187.6,285.4 180.6,280.3 189.3,280.3" fill="#FFFFFF"/>
<polygon points="246.0,272.0 248.7,280.3 257.4,280.3 250.4,285.4 253.1,293.7 246.0,288.6 238.9,293.7 241.6,285.4 234.6,280.3 243.3,280.3" fill="#FFFFFF"/>
<polygon points="300.0,272.0 302.7,280.3 311.4,280.3 304.4,285.4 307.1,293.7 300.0,288.6 292.9,293.7 295.6,285.4 288.6,280.3 297.3,280.3" fill="#FFFFFF"/>
<polygon points="30.0,310.0 32.7,318.3 41.4,318.3 34.4,323.4 37.1,331.7 30.0,326.6 22.9,331.7 25.6,323.4 18.6,318.3 27.3,318.3" fill="#FFFFFF"/>
<polygon points="84.0,310.0 86.7,318.3 95.4,318.3 88.4,323.4 91.1,331.7 84.0,326.6 76.9,331.7 79.6,323.4 72.6,318.3 81.3,318.3" fill="#FFFFFF"/>

</svg>
