<svg xmlns="http://www.w3.org/2000/svg" viewBox="0 0 900 600">

<rect width="900" height="200" fill="#FFD100"/>
<rect y="200" width="900" height="200" fill="#003893"/>
<rect y="400" width="900" height="200" fill="#CE1126"/>
<polygon points="335.0,281.0 339.3,294.1 353.1,294.1 341.9,302.2 346.2,315.4 335.0,307.3 323.8,315.4 328.1,302.2 316.9,294.1 330.7,294.1" fill="#FFFFFF"/>
<polygon points="346.4,268.9 350.7,282.0 364.5,282.0 353.3,290.1 357.6,303.2 346.4,295.1 335.2,303.2 339.5,290.1 328.3,282.0 342.1,282.0" fill="#FFFFFF"/>
<polygon points="378.3,259.1 382.6,272.2 396.4,272.2 385.2,280.4 389.5,293.5 378.3,285.4 367.1,293.5 371.4,280.4 360.2,272.2 374.0,272.2" fill="#FFFFFF"/>
<polygon points="424.4,253.7 428.7,266.8 442.5,266.8 431.3,274.9 435.6,288.1 424.4,280.0 413.2,288.1 417.5,274.9 406.3,266.8 420.1,266.8" fill="#FFFFFF"/>
<polygon points="475.6,253.7 479.9,266.8 493.7,266.8 482.5,274.9 486.8,288.1 475.6,280.0 464.4,288.1 468.7,274.9 457.5,266.8 471.3,266.8" fill="#FFFFFF"/>
<polygon points="521.7,259.1 526.0,272.2 539.8,272.2 528.6,280.4 532.9,293.5 521.7,285.4 510.5,293.5 514.8,280.4 503.6,272.2 517.4,272.2" fill="#FFFFFF"/>
<polygon points="553.6,268.9 557.9,282.0 571.7,282.0 560.5,290.1 564.8,303.2 553.6,295.1 542.4,303.2 546.7,290.1 535.5,282.0 549.3,282.0" fill="#FFFFFF"/>
<polygon points="565.0,281.0 569.3,294.1 583.1,294.1 571.9,302.2 576.2,315.4 565.0,307.3 553.8,315.4 558.1,302.2 546.9,294.1 560.7,294.1" fill="#FFFFFF"/>

</svg>
